<svg xmlns="http://www.w3.org/2000/svg" viewBox="0 0 256 256" role="img" aria-labelledby="title desc">
  <title id="title">Dr. Sherin Pharmacy</title>
  <desc id="desc">Blue and teal pharmacy emblem with a mortar, pestle, and leaf details matching the system style.</desc>
  <defs>
    <linearGradient id="bg" x1="0%" y1="0%" x2="100%" y2="100%">
      <stop offset="0%" stop-color="#f8fbff" />
      <stop offset="100%" stop-color="#eef7ff" />
    </linearGradient>
    <linearGradient id="primary" x1="0%" y1="0%" x2="100%" y2="100%">
      <stop offset="0%" stop-color="#3b82f6" />
      <stop offset="100%" stop-color="#1d4ed8" />
    </linearGradient>
    <linearGradient id="secondary" x1="0%" y1="0%" x2="100%" y2="100%">
      <stop offset="0%" stop-color="#2dd4bf" />
      <stop offset="100%" stop-color="#0f766e" />
    </linearGradient>
    <linearGradient id="accent" x1="0%" y1="0%" x2="100%" y2="100%">
      <stop offset="0%" stop-color="#93c5fd" />
      <stop offset="100%" stop-color="#67e8f9" />
    </linearGradient>
    <filter id="softShadow" x="-20%" y="-20%" width="140%" height="140%">
      <feDropShadow dx="0" dy="8" stdDeviation="8" flood-color="#0f172a" flood-opacity="0.16" />
    </filter>
  </defs>

  <rect width="256" height="256" rx="56" fill="url(#bg)" />
  <circle cx="208" cy="48" r="34" fill="#bfdbfe" opacity="0.45" />
  <circle cx="46" cy="210" r="30" fill="#99f6e4" opacity="0.45" />

  <g filter="url(#softShadow)">
    <path
      d="M41 132c18-15 43-23 75-23h24c32 0 57 8 75 23-9 24-25 41-48 51H89c-23-10-39-27-48-51z"
      fill="url(#primary)"
    />
    <path
      d="M59 128c17 9 40 14 69 14s52-5 69-14"
      fill="none"
      stroke="#ffffff"
      stroke-linecap="round"
      stroke-width="6"
      opacity="0.92"
    />
    <path
      d="M52 139c16 2 31 11 43 27-27 2-47-8-60-29 6 0 12 1 17 2z"
      fill="url(#secondary)"
    />
    <path
      d="M204 139c-16 2-31 11-43 27 27 2 47-8 60-29-6 0-12 1-17 2z"
      fill="url(#secondary)"
    />
    <path
      d="M130 57h26c5 0 9 4 9 9s-4 9-9 9h-26z"
      fill="url(#accent)"
    />
    <path
      d="M126 72h16l-10 58h-16z"
      fill="url(#accent)"
    />
    <path
      d="M104 72c-16 3-26 13-31 29 18-1 29-10 31-29z"
      fill="url(#secondary)"
    />
    <path
      d="M128 69c-15 4-23 15-23 32 16-3 24-14 23-32z"
      fill="url(#secondary)"
    />
    <path
      d="M94 92c-14 2-24 11-29 24 16-1 26-9 29-24z"
      fill="url(#secondary)"
    />
    <path
      d="M80 169c14 6 30 9 48 9s34-3 48-9"
      fill="none"
      stroke="#1e3a8a"
      stroke-linecap="round"
      stroke-width="4"
      opacity="0.2"
    />
  </g>
</svg>
